<svg xmlns="http://www.w3.org/2000/svg" width="512" height="512" viewBox="0 0 512 512" version="1.1">
	<path d="M 169.500 98.046 C 155.251 100.284, 139.535 106.350, 126.794 114.528 C 116.478 121.150, 100.715 137.521, 94.524 148.043 C 83.822 166.233, 79.674 181.761, 79.710 203.500 C 79.731 216.442, 80.094 219.862, 82.355 228.429 C 83.796 233.890, 84.869 238.444, 84.738 238.550 C 84.607 238.656, 80.786 239.276, 76.247 239.927 C 34.341 245.937, 2.692 280.360, 0.328 322.500 C -1.101 347.973, 7.931 371.151, 26.437 389.500 C 36.082 399.064, 42.097 403.114, 54.681 408.519 C 70.818 415.449, 59.167 415.087, 255.500 414.773 L 432.500 414.490 439.995 412.173 C 457.980 406.615, 471.137 398.942, 483.076 387.048 C 497.815 372.364, 506.895 355.080, 510.427 334.984 C 511.652 328.019, 511.775 327.777, 512.203 331.500 C 512.487 333.963, 512.721 332.425, 512.814 327.500 C 513.100 312.227, 509.340 292.358, 503.755 279.625 C 485.886 238.885, 443.492 215.840, 398.944 222.650 L 395.388 223.194 394.162 217.847 C 392.314 209.787, 384.812 195.307, 378.700 188 C 369.052 176.467, 354.031 166.620, 339.875 162.549 C 325.478 158.408, 307.515 158.824, 292.959 163.634 C 288.553 165.091, 284.803 166.106, 284.625 165.891 C 284.447 165.676, 282.198 161.225, 279.628 156 C 266.031 128.366, 241.395 108.356, 211.192 100.416 C 200.254 97.540, 180.038 96.391, 169.500 98.046 M 0.360 327 C 0.360 332.225, 0.529 334.363, 0.735 331.750 C 0.941 329.137, 0.941 324.863, 0.735 322.250 C 0.529 319.637, 0.360 321.775, 0.360 327" stroke="none" fill="black" fill-rule="evenodd"/>
</svg>